<svg width="68" height="50" fill="none" xmlns="http://www.w3.org/2000/svg"><path d="M28.26 34.47c-1 0-1.897-.61-2.264-1.54l-1.46-3.69a2.434 2.434 0 0 0-2.264-1.538h-9.996c-1.016 0-1.925.63-2.28 1.581l-1.349 3.605a2.434 2.434 0 0 1-2.28 1.581H2.661a2.434 2.434 0 0 1-2.245-3.376l12.418-29.6A2.434 2.434 0 0 1 15.078 0h4.838c.984 0 1.871.592 2.249 1.5l12.291 29.602a2.434 2.434 0 0 1-2.248 3.367H28.26Zm-8.642-19.02c-.773-2.131-3.784-2.142-4.572-.016l-.858 2.318a2.434 2.434 0 0 0 2.282 3.28h1.698a2.434 2.434 0 0 0 2.289-3.263l-.84-2.318Z" fill="#647B64"/><path d="M67.987 36.076c0 2.077-.357 3.976-1.07 5.696a12.346 12.346 0 0 1-2.97 4.382c-1.299 1.2-2.873 2.142-4.723 2.824-1.818.681-3.846 1.022-6.086 1.022-2.272 0-4.316-.34-6.134-1.022-1.818-.682-3.36-1.623-4.625-2.824a12.661 12.661 0 0 1-2.921-4.382c-.682-1.72-1.023-3.619-1.023-5.696V25.949a2.434 2.434 0 0 0-2.434-2.434h-7.703a2.434 2.434 0 0 1-2.341-1.769l-1.149-4.04a2.434 2.434 0 0 1 2.341-3.1h17.129a2.434 2.434 0 0 1 2.434 2.434v18.354c0 .942.113 1.834.34 2.678.26.844.633 1.607 1.12 2.288.52.65 1.185 1.169 1.997 1.558.843.39 1.85.584 3.018.584 1.168 0 2.158-.194 2.97-.584.844-.39 1.525-.909 2.045-1.558a6.546 6.546 0 0 0 1.12-2.288c.226-.844.34-1.736.34-2.678V17.04a2.434 2.434 0 0 1 2.434-2.434h3.457a2.434 2.434 0 0 1 2.434 2.434v19.036Z" fill="#647B64"/></svg>