<svg width="15" height="8" fill="none" xmlns="http://www.w3.org/2000/svg"><path d="M14.007 3.577 9.644.159a.523.523 0 0 0-.296-.072.498.498 0 0 0-.282.1.316.316 0 0 0-.127.221.295.295 0 0 0 .091.232l3.617 2.837H.473a.504.504 0 0 0-.31.1.31.31 0 0 0-.128.243.31.31 0 0 0 .128.243c.082.064.194.1.31.1H12.64L9.03 6.995a.38.38 0 0 0-.118.11.276.276 0 0 0-.022.282.347.347 0 0 0 .1.121.464.464 0 0 0 .154.078.548.548 0 0 0 .359-.017.429.429 0 0 0 .14-.093l4.364-3.424a.309.309 0 0 0 .123-.237.309.309 0 0 0-.123-.238Z" fill="#FEFEFE"/></svg>