<svg width="210" height="50" fill="none" xmlns="http://www.w3.org/2000/svg"><path d="M29.26 34.47c-1 0-1.897-.61-2.264-1.54l-1.46-3.69a2.434 2.434 0 0 0-2.264-1.538h-9.996c-1.016 0-1.925.63-2.28 1.581l-1.349 3.605a2.434 2.434 0 0 1-2.28 1.581H3.661a2.434 2.434 0 0 1-2.245-3.376l12.418-29.6A2.434 2.434 0 0 1 16.078 0h4.838c.984 0 1.871.592 2.249 1.5l12.291 29.602a2.434 2.434 0 0 1-2.248 3.367H29.26Zm-8.642-19.02c-.773-2.131-3.784-2.142-4.572-.016l-.858 2.318a2.434 2.434 0 0 0 2.282 3.28h1.698a2.434 2.434 0 0 0 2.289-3.263l-.84-2.318Z" fill="#647B64"/><path d="M68.987 36.076c0 2.077-.357 3.976-1.07 5.696a12.346 12.346 0 0 1-2.97 4.382c-1.299 1.2-2.873 2.142-4.723 2.824-1.818.681-3.846 1.022-6.086 1.022-2.272 0-4.316-.34-6.134-1.022-1.818-.682-3.36-1.623-4.625-2.824a12.661 12.661 0 0 1-2.921-4.382c-.682-1.72-1.023-3.619-1.023-5.696V25.949a2.434 2.434 0 0 0-2.434-2.434h-7.703a2.434 2.434 0 0 1-2.341-1.769l-1.149-4.04a2.434 2.434 0 0 1 2.341-3.1h17.129a2.434 2.434 0 0 1 2.434 2.434v18.354c0 .942.113 1.834.34 2.678.26.844.633 1.607 1.12 2.288.52.65 1.185 1.169 1.997 1.558.843.39 1.85.584 3.018.584 1.168 0 2.158-.194 2.97-.584.844-.39 1.525-.909 2.045-1.558a6.546 6.546 0 0 0 1.12-2.288c.226-.844.34-1.736.34-2.678V17.04a2.434 2.434 0 0 1 2.434-2.434h3.457a2.434 2.434 0 0 1 2.434 2.434v19.036ZM86.726 19.358a1.66 1.66 0 0 1 3.046.005l4.878 11.323a1.314 1.314 0 1 1-2.423 1.016L91.9 30.9a2.602 2.602 0 0 0-2.41-1.62h-2.648a2.56 2.56 0 0 0-2.382 1.62l-.32.811a1.279 1.279 0 1 1-2.362-.98l4.948-11.373Zm1.441 7.762c1.06 0 1.792-1.06 1.417-2.05-.492-1.301-2.33-1.307-2.83-.01-.383.993.35 2.06 1.413 2.06ZM95.658 20.04a1.311 1.311 0 1 1 2.526-.703l2.478 9.403c.003.012.013.02.025.02a.025.025 0 0 0 .025-.019l2.742-9.14a1.743 1.743 0 0 1 3.341.01l2.686 9.13a.026.026 0 0 0 .025.019.027.027 0 0 0 .026-.02l2.541-9.436a1.275 1.275 0 1 1 2.456.69l-3.317 11.344a1.642 1.642 0 0 1-3.146.029l-2.953-9.448a.028.028 0 0 0-.026-.019.027.027 0 0 0-.026.02l-2.954 9.447a1.643 1.643 0 0 1-3.146-.03L95.658 20.04ZM116.685 21.36a3 3 0 0 1 3-3h5.28a1.1 1.1 0 0 1 0 2.2h-3.96a1.8 1.8 0 0 0 0 3.6h3.64a1.06 1.06 0 0 1 0 2.12h-3.44a2 2 0 1 0 0 4h4.1a1.12 1.12 0 0 1 0 2.24h-5.62a3 3 0 0 1-3-3v-8.16ZM137.008 20.337c-.467.512-1.313.477-1.935.171a4.293 4.293 0 0 0-.101-.048c-.48-.24-.967-.36-1.46-.36-.293 0-.587.04-.88.12-.293.067-.56.18-.8.34-.24.147-.44.347-.6.6-.147.24-.22.533-.22.88 0 .32.067.593.2.82.133.227.313.42.54.58.24.16.527.3.86.42.333.12.7.24 1.1.36.453.147.92.313 1.4.5.493.187.94.433 1.34.74.413.307.747.693 1 1.16.267.467.4 1.047.4 1.74 0 .76-.14 1.427-.42 2a4.128 4.128 0 0 1-1.12 1.4 4.777 4.777 0 0 1-1.64.84 6.902 6.902 0 0 1-1.98.28c-.92 0-1.82-.167-2.7-.5a5.636 5.636 0 0 1-1.349-.749c-.501-.38-.451-1.107.009-1.536.52-.486 1.352-.386 1.952-.003.129.082.265.158.408.228.587.28 1.16.42 1.72.42.293 0 .593-.033.9-.1.307-.08.58-.207.82-.38.253-.173.453-.387.6-.64.16-.267.24-.593.24-.98 0-.373-.087-.68-.26-.92a2.166 2.166 0 0 0-.7-.64 4.693 4.693 0 0 0-1.04-.48l-1.26-.42a12.467 12.467 0 0 1-1.28-.48 4.404 4.404 0 0 1-1.16-.74 3.69 3.69 0 0 1-.82-1.12c-.213-.453-.32-1.013-.32-1.68 0-.72.147-1.34.44-1.86.307-.52.7-.947 1.18-1.28a5.097 5.097 0 0 1 1.66-.76 7.1 7.1 0 0 1 1.9-.26c.72 0 1.447.127 2.18.38.377.128.729.289 1.056.481.526.311.552 1.023.14 1.476ZM139.696 25.4c0-1.133.187-2.153.56-3.06a6.92 6.92 0 0 1 1.58-2.34 7.125 7.125 0 0 1 2.4-1.48c.934-.347 1.947-.52 3.04-.52 1.107 0 2.127.173 3.06.52.934.347 1.74.84 2.42 1.48a6.54 6.54 0 0 1 1.58 2.34c.387.907.58 1.927.58 3.06 0 1.107-.193 2.12-.58 3.04a6.99 6.99 0 0 1-1.58 2.36 7.429 7.429 0 0 1-2.42 1.54c-.933.36-1.953.54-3.06.54-1.093 0-2.106-.18-3.04-.54a7.488 7.488 0 0 1-2.4-1.54 7.427 7.427 0 0 1-1.58-2.36c-.373-.92-.56-1.933-.56-3.04Zm2.74 0c0 .76.114 1.46.34 2.1.24.627.574 1.173 1 1.64.44.467.954.833 1.54 1.1.6.253 1.26.38 1.98.38s1.38-.127 1.98-.38a4.573 4.573 0 0 0 1.54-1.1 4.673 4.673 0 0 0 1-1.64c.24-.64.36-1.34.36-2.1 0-.733-.12-1.413-.36-2.04a4.825 4.825 0 0 0-.98-1.64 4.573 4.573 0 0 0-1.54-1.1c-.6-.267-1.266-.4-2-.4-.733 0-1.4.133-2 .4a4.645 4.645 0 0 0-1.52 1.1 5.124 5.124 0 0 0-1 1.64 5.971 5.971 0 0 0-.34 2.04ZM157.349 20.679a2.319 2.319 0 0 1 4.497-.797l3.113 8.51a.042.042 0 0 0 .08 0l3.074-8.497a2.329 2.329 0 0 1 4.516.792V31.27a1.25 1.25 0 0 1-2.5 0V21.164a.024.024 0 0 0-.024-.024.024.024 0 0 0-.022.015L166.099 31.7a1.27 1.27 0 0 1-2.378-.006l-3.926-10.538a.025.025 0 0 0-.022-.015.023.023 0 0 0-.024.024V31.32a1.2 1.2 0 1 1-2.4 0V20.679ZM175.747 21.36a3 3 0 0 1 3-3h5.28a1.1 1.1 0 1 1 0 2.2h-3.96a1.8 1.8 0 0 0 0 3.6h3.64a1.06 1.06 0 1 1 0 2.12h-3.44a2 2 0 0 0 0 4h4.1a1.12 1.12 0 1 1 0 2.24h-5.62a3 3 0 0 1-3-3v-8.16ZM204.234 27.32c0 .853-.146 1.627-.44 2.32a5.193 5.193 0 0 1-1.2 1.74 5.394 5.394 0 0 1-1.8 1.12 6.534 6.534 0 0 1-2.26.38 6.542 6.542 0 0 1-2.26-.38 5.64 5.64 0 0 1-1.82-1.12 5.222 5.222 0 0 1-1.2-1.74c-.28-.693-.42-1.467-.42-2.32v-7.7a1.26 1.26 0 1 1 2.52 0v7.6c0 .413.054.827.16 1.24.107.4.28.76.52 1.08.254.32.58.58.98.78.414.2.92.3 1.52.3s1.1-.1 1.5-.3c.414-.2.74-.46.98-.78.254-.32.434-.68.54-1.08a4.93 4.93 0 0 0 .16-1.24v-7.6a1.26 1.26 0 0 1 2.52 0v7.7ZM207.232 19.62a1.26 1.26 0 1 1 2.52 0v11.64a1.26 1.26 0 1 1-2.52 0V19.62Z" fill="#647B64"/></svg>