<svg width="28" height="28" fill="none" xmlns="http://www.w3.org/2000/svg"><path fill-rule="evenodd" clip-rule="evenodd" d="M4.019 8.167C3.732 8.167 3.5 7.644 3.5 7s.232-1.167.519-1.167h8.296c.286 0 .518.523.518 1.167s-.232 1.167-.518 1.167H4.019Zm.648 7a1.167 1.167 0 1 1 0-2.334h18.666a1.167 1.167 0 1 1 0 2.334H4.667ZM15 21c0 .552.224 1 .5 1h8c.276 0 .5-.448.5-1s-.224-1-.5-1h-8c-.276 0-.5.448-.5 1Z" fill="#222B45"/><mask id="a" style="mask-type:luminance" maskUnits="userSpaceOnUse" x="3" y="5" width="22" height="17"><path fill-rule="evenodd" clip-rule="evenodd" d="M4.019 8.167C3.732 8.167 3.5 7.644 3.5 7s.232-1.167.519-1.167h8.296c.286 0 .518.523.518 1.167s-.232 1.167-.518 1.167H4.019Zm.648 7a1.167 1.167 0 1 1 0-2.334h18.666a1.167 1.167 0 1 1 0 2.334H4.667ZM15 21c0 .552.224 1 .5 1h8c.276 0 .5-.448.5-1s-.224-1-.5-1h-8c-.276 0-.5.448-.5 1Z" fill="#fff"/></mask></svg>