<svg width="64" height="64" fill="none" xmlns="http://www.w3.org/2000/svg"><path d="M40.053 5.947a52.613 52.613 0 0 0-16.107 0c-2.186.346-3.786 2.213-3.786 4.4v9.813h-9.814c-2.186 0-4.053 1.6-4.4 3.787a52.613 52.613 0 0 0 0 16.106c.347 2.187 2.214 3.787 4.4 3.787h4.48a1.32 1.32 0 0 0 1.334-1.333V37.92c0-5.467 4.453-9.92 9.92-9.92h11.84c1.066 0 1.92-.853 1.92-1.92v-8.587a1.32 1.32 0 0 1 1.333-1.333h1.333a1.32 1.32 0 0 0 1.334-1.333v-4.48c0-2.187-1.6-4.054-3.787-4.4ZM27.546 14.88c-1.093 0-2.133-1.04-2.133-2.133 0-1.12 1.04-2.16 2.133-2.16.534 0 1.12.24 1.494.613.4.373.666.987.666 1.547 0 1.093-1.04 2.133-2.16 2.133Z" fill="#647B64"/><path d="M58.053 23.947c-.347-2.187-2.213-3.787-4.4-3.787h-8.48a1.32 1.32 0 0 0-1.334 1.333v4.587c0 3.253-2.64 5.92-5.92 5.92H26.08c-3.28 0-5.92 2.64-5.92 5.92v15.733c0 2.187 1.6 4.054 3.787 4.4a52.617 52.617 0 0 0 16.107 0c2.187-.346 3.787-2.213 3.787-4.4V43.84h9.813c2.187 0 4.053-1.6 4.4-3.787a52.611 52.611 0 0 0 0-16.106Zm-21.6 29.466c-1.094 0-2.16-1.04-2.16-2.16s1.04-2.16 2.16-2.16c.506 0 1.12.24 1.493.587.4.373.667 1.013.667 1.547-.027 1.146-1.067 2.186-2.16 2.186Z" fill="#647B64"/></svg>